<svg width="21" height="20" viewBox="0 0 21 20" fill="none" xmlns="http://www.w3.org/2000/svg">
<path d="M9 8.10632V18.5135C8.9998 18.7895 8.77599 19.0135 8.5 19.0135C8.22398 19.0135 8.0002 18.7895 8 18.5135V7.08582L9 8.10632Z" fill="black"></path>
<path d="M16.7002 15.9696C16.6387 15.9966 16.5715 16.0135 16.5 16.0135C16.224 16.0135 16.0002 15.7895 16 15.5135V15.2538L16.7002 15.9696Z" fill="black"></path>
<path d="M13 12.1903V15.0995C12.9998 15.3754 12.776 15.5995 12.5 15.5995C12.224 15.5995 12.0002 15.3755 12 15.0995V11.1698L13 12.1903Z" fill="black"></path>
<path d="M16.5 2.01355C16.7761 2.01358 17 2.23743 17 2.51355V14.8466L16 13.8251V2.51355C16 2.23741 16.2239 2.01355 16.5 2.01355Z" fill="black"></path>
<path d="M4.4707 6.03503C4.74678 6.03368 4.9722 6.25699 4.97363 6.53308L5 11.6923C5.00123 11.9681 4.77876 12.1935 4.50293 12.1952C4.22699 12.1966 4.00176 11.974 4 11.6981L3.97363 6.53796C3.97224 6.26186 4.19459 6.03647 4.4707 6.03503Z" fill="black"></path>
<path d="M0.5 7.01355C0.776114 7.01358 1 7.23743 1 7.51355V10.5135C0.999802 10.7895 0.775992 11.0135 0.5 11.0135C0.22398 11.0135 0.000197834 10.7895 0 10.5135V7.51355C0 7.23741 0.223858 7.01355 0.5 7.01355Z" fill="black"></path>
<path d="M20.5 7.01355C20.7761 7.01358 21 7.23743 21 7.51355V10.5135C20.9998 10.7895 20.776 11.0135 20.5 11.0135C20.224 11.0135 20.0002 10.7895 20 10.5135V7.51355C20 7.23741 20.2239 7.01355 20.5 7.01355Z" fill="black"></path>
<path d="M12.5 3.90808C12.7761 3.90811 13 4.13196 13 4.40808V10.7626L12 9.74109V4.40808C12 4.13194 12.2239 3.90808 12.5 3.90808Z" fill="black"></path>
<path d="M8.5 0.0135498C8.77611 0.0135828 9 0.237428 9 0.51355V6.67761L8 5.6571V0.51355C8 0.237407 8.22386 0.0135498 8.5 0.0135498Z" fill="black"></path>
<path d="M1.28939 0.153395C1.09617 -0.0438872 0.775101 -0.0519152 0.572262 0.135464C0.369423 0.322844 0.361626 0.634674 0.554847 0.831956L0.922119 0.492676L1.28939 0.153395ZM18.7575 19.4172C18.9507 19.6145 19.2718 19.6225 19.4746 19.4352C19.6774 19.2478 19.6852 18.936 19.492 18.7387L19.1247 19.078L18.7575 19.4172ZM0.922119 0.492676L0.554847 0.831956L18.7575 19.4172L19.1247 19.078L19.492 18.7387L1.28939 0.153395L0.922119 0.492676Z" fill="black"></path>
</svg>